<svg xmlns="http://www.w3.org/2000/svg" viewBox="0 0 4001 2803"><rect width="100%" height="100%" fill="#009c3b"/><path fill="#f8e509" fill-rule="evenodd" d="M307.39 1408.41 1996.16 305.68l1664.5 1088.86L1982.3 2497.27z"/><path fill="#2b49a3" fill-rule="evenodd" d="M2019.57 680.191c396.442 0 717.828 321.387 717.828 717.82 0 396.43-321.386 717.817-717.828 717.817s-717.808-321.387-717.808-717.816c0-396.434 321.367-717.82 717.808-717.82"/><path fill="#fff" fill-rule="evenodd" d="M2722.129 1545.77c-7.82 37.351-18.559 73.609-31.918 108.582-121.832-116.114-631.79-549.93-1361.3-452.57 12.148-42.821 28.198-83.981 47.69-123.141 2.75-.47 699.579-118.2 1345.528 467.129"/><path fill="#33a03d" d="m1503 1161.691 3.23-75.601 37.77 1.61c9.488.402 16.371 1.378 20.61 2.921 4.261 1.54 7.59 4.09 10.03 7.68 2.438 3.59 3.57 7.61 3.38 12.07-.239 5.68-2.38 10.29-6.45 13.82-4.058 3.52-10 5.598-17.808 6.239 3.789 2.07 6.879 4.332 9.277 6.742 2.422 2.406 5.64 6.648 9.652 12.707l10.207 15.223-21.449-.922-12.148-17.059c-4.36-6.05-7.36-9.883-9.012-11.492-1.64-1.578-3.39-2.707-5.27-3.36-1.898-.648-4.91-1.05-9.039-1.23l-3.64-.148-1.34 31.57Zm19.852-42.851 13.277.57c8.601.371 13.973.27 16.152-.238 2.14-.531 3.89-1.531 5.14-2.992 1.298-1.47 1.97-3.34 2.067-5.61.114-2.55-.61-4.629-2.129-6.28-1.53-1.63-3.738-2.712-6.609-3.24-1.46-.25-5.82-.51-13.078-.82l-14-.609zM1597.988 1089.629l32.66 2.312c7.364.52 12.954 1.387 16.743 2.63 5.09 1.66 9.379 4.3 12.847 7.89 3.48 3.59 5.992 7.86 7.602 12.828 1.57 4.95 2.129 10.98 1.62 18.04-.429 6.23-1.722 11.5-3.858 15.87-2.59 5.34-6.063 9.57-10.41 12.672-3.282 2.36-7.614 4.07-12.981 5.14-4.02.79-9.32.95-15.93.477l-33.62-2.367Zm17.063 14.02-3.531 49.98 13.308.93c4.98.363 8.594.37 10.832.05 2.961-.418 5.418-1.289 7.43-2.64 2.02-1.34 3.738-3.649 5.18-6.938 1.449-3.293 2.37-7.87 2.789-13.71.41-5.821.132-10.333-.868-13.551-.972-3.211-2.5-5.75-4.543-7.668-2.039-1.883-4.699-3.282-8-4.133-2.449-.649-7.328-1.23-14.59-1.75zM1682.29 1171.86l8.64-75.18 65.39 7.52-1.468 12.698-47.493-5.457-1.918 16.7 44.16 5.07-1.46 12.71-44.16-5.081-2.34 20.37 49.21 5.661-1.46 12.7zM1769.3 1184.629l5.122-75.508 26.898 1.828 12.41 52.57 19.2-50.43 26.968 1.833-5.117 75.5-16.601-1.121 3.968-59.45-21.507 58.258-17.27-1.168-13.383-60.62-4.09 59.429zM1890.96 1196.762l15.118-50.364 37.344 11.223-2.55 8.508-27.192-8.149-3.328 11.16 25.257 7.59-2.539 8.489-25.28-7.598-4.118 13.707 28.137 8.453-2.559 8.48z"/><path fill="none" stroke="#33a03d" stroke-miterlimit="2.613" stroke-width=".7469000000000001" d="m1890.96 1196.762 15.118-50.364 37.344 11.223-2.55 8.508-27.192-8.149-3.328 11.16 25.257 7.59-2.539 8.489-25.28-7.598-4.118 13.707 28.137 8.453-2.559 8.48Zm0 0"/><path fill="#33a03d" d="m1982.27 1238.82 13.07-83.308 27 4.25c10.23 1.59 16.832 3.047 19.82 4.386 4.559 2 8.14 5.332 10.7 10.032 2.562 4.691 3.312 10.351 2.28 16.992-.788 5.11-2.402 9.258-4.812 12.457-2.398 3.191-5.18 5.55-8.367 7.09-3.16 1.55-6.281 2.402-9.34 2.59-4.133.16-10-.36-17.633-1.547l-10.968-1.711-4.918 31.418Zm27.69-66.57-3.71 23.648 9.21 1.442c6.618 1.031 11.13 1.3 13.509.789 2.351-.54 4.332-1.629 5.883-3.277 1.57-1.653 2.527-3.711 2.918-6.192.48-3.031 0-5.66-1.489-7.922-1.472-2.238-3.531-3.828-6.191-4.75-1.95-.699-5.942-1.52-12.012-2.468zM2049.988 1251.422l33.203-77.5 32.95 14.117c8.28 3.55 14 6.82 17.148 9.813 3.16 3.007 5.102 6.77 5.84 11.289.723 4.539.11 9.09-1.848 13.68-2.5 5.808-6.27 9.87-11.3 12.199-5.06 2.332-11.192 2.52-18.41.601 2.538 3.418 4.41 6.79 5.6 10.09 1.18 3.309 2.368 8.77 3.509 16.39l2.98 19.18-18.71-8.02-4.079-21.71c-1.441-7.762-2.57-12.73-3.371-14.93-.809-2.21-1.922-3.941-3.328-5.242-1.402-1.29-3.91-2.719-7.5-4.25l-3.16-1.36-13.883 32.36Zm34.801-38.031 11.59 4.98c7.5 3.207 12.332 4.91 14.473 5.07 2.136.16 4.07-.312 5.777-1.41 1.723-1.09 3.09-2.8 4.09-5.12 1.11-2.61 1.332-5.02.61-7.2-.708-2.211-2.24-4.082-4.599-5.582-1.171-.719-4.94-2.438-11.289-5.168l-12.21-5.223zM2140.61 1248.809c2.628-8.18 6.1-14.637 10.34-19.387a39.8 39.8 0 0 1 11.03-8.57c4.211-2.23 8.45-3.512 12.711-3.872 5.688-.48 11.79.34 18.329 2.461 11.82 3.829 20.07 10.559 24.789 20.188 4.722 9.652 4.953 20.992.722 34.043-4.203 12.95-11.011 21.937-20.43 26.969-9.41 5.03-20.023 5.629-31.8 1.82-11.91-3.883-20.223-10.602-24.89-20.16-4.68-9.57-4.95-20.742-.802-33.492m16.859 4.882q-4.426 13.603-.418 22.688c2.687 6.031 7.258 10.121 13.699 12.21 6.469 2.09 12.5 1.481 18.148-1.827 5.653-3.293 9.993-9.602 13.012-18.91 2.988-9.18 3.18-16.692.64-22.532-2.562-5.82-7.19-9.832-13.859-11.992-6.671-2.168-12.8-1.637-18.382 1.621q-8.34 4.877-12.84 18.742M2259.52 1309.059l6.218-12.778 32.98 16.078-14.698 30.211c-4.72 1.532-10.692 2.008-17.918 1.399-7.243-.598-13.973-2.43-20.223-5.469-7.93-3.852-14.04-8.89-18.3-15.078-4.27-6.203-6.4-13.133-6.349-20.75.06-7.652 1.84-15.094 5.399-22.363 3.851-7.887 8.91-14.098 15.223-18.618 6.277-4.543 13.43-6.882 21.386-7.05 6.102-.13 12.762 1.55 19.992 5.058 9.418 4.602 15.801 10.153 19.192 16.68 3.36 6.512 4.11 13.633 2.219 21.332l-16.582-4.563c.75-4.25.171-8.16-1.73-11.75-1.9-3.578-5.06-6.468-9.458-8.609-6.7-3.258-13.043-3.719-19.062-1.398-6.008 2.3-11.04 7.648-15.098 15.98-4.41 9-5.672 16.73-3.883 23.168 1.813 6.45 5.961 11.242 12.442 14.402q4.816 2.354 10.558 2.82c3.832.29 7.352.11 10.531-.53l4.692-9.641zM2299.352 1365.398l38-75.277 32 16.16c8.058 4.059 13.546 7.688 16.52 10.88 2.956 3.198 4.667 7.058 5.108 11.648.43 4.55-.46 9.05-2.71 13.511-2.848 5.64-6.86 9.47-12.04 11.48-5.19 2.009-11.32 1.802-18.39-.562 2.308 3.57 3.95 7.043 4.93 10.41.98 3.383 1.808 8.922 2.492 16.602l1.77 19.328-18.173-9.18-2.718-21.93c-.95-7.827-1.762-12.866-2.442-15.109-.648-2.25-1.66-4.058-2.96-5.437-1.329-1.39-3.739-2.961-7.25-4.711l-3.067-1.55-15.871 31.429Zm37.136-35.757 11.25 5.68c7.282 3.667 11.98 5.667 14.121 5.96 2.13.309 4.07-.031 5.871-1.02 1.79-.991 3.258-2.613 4.399-4.882 1.27-2.527 1.621-4.918 1.062-7.149-.57-2.242-1.972-4.19-4.242-5.84-1.129-.8-4.789-2.75-10.96-5.87l-11.848-5.98zM2375.059 1405.71l42.152-73.108 54.2 31.238-7.122 12.36-39.46-22.72-9.34 16.2 36.71 21.16-7.09 12.32-36.718-21.16-11.461 19.898 40.851 23.551-7.101 12.332zM2453.32 1422.762l14.418 8.328c-2.41 5.12-3.148 9.629-2.187 13.52.96 3.902 3.558 7.35 7.758 10.359 4.48 3.203 8.52 4.66 12.132 4.39 3.618-.27 6.32-1.668 8.137-4.199 1.152-1.62 1.66-3.351 1.531-5.18-.14-1.8-1.09-3.98-2.859-6.52-1.21-1.73-4.2-5.37-8.96-10.94-6.099-7.149-9.7-13.141-10.79-17.97-1.512-6.788-.32-12.91 3.559-18.331 2.511-3.508 5.84-6.047 10-7.68 4.16-1.64 8.652-1.91 13.53-.828 4.88 1.059 9.942 3.5 15.22 7.27 8.613 6.16 13.742 12.68 15.41 19.57 1.633 6.89.332 13.578-3.969 20.039l-14.281-9.32c1.93-3.93 2.46-7.391 1.633-10.32-.864-2.938-3.23-5.81-7.133-8.598-4.02-2.883-7.79-4.313-11.239-4.274q-3.329.017-5.242 2.672c-1.168 1.629-1.468 3.512-.918 5.64.7 2.731 3.84 7.301 9.461 13.7 5.598 6.422 9.418 11.629 11.41 15.64 2.028 4.02 2.88 8.141 2.61 12.399-.27 4.25-1.961 8.562-5.07 12.89-2.82 3.93-6.56 6.833-11.192 8.72-4.648 1.87-9.559 2.202-14.75 1.023-5.18-1.192-10.758-3.934-16.71-8.184-8.7-6.2-13.907-12.976-15.72-20.316-1.78-7.32-.37-15.172 4.211-23.5M2518.07 1465.379l13.86 9.223c-2.739 4.949-3.739 9.398-3.032 13.34.723 3.949 3.09 7.57 7.114 10.84 4.25 3.437 8.168 5.167 11.797 5.116 3.62-.058 6.421-1.27 8.37-3.687 1.262-1.54 1.88-3.211 1.872-5.031-.031-1.828-.84-4.07-2.45-6.711-1.12-1.797-3.851-5.63-8.25-11.469-5.652-7.52-8.863-13.73-9.632-18.602-1.09-6.867.472-12.886 4.703-18.078 2.707-3.32 6.187-5.648 10.437-7.03 4.262-1.368 8.782-1.34 13.563.038 4.777 1.371 9.7 4.113 14.719 8.203 8.21 6.68 12.918 13.52 14.148 20.489q1.815 10.471-5.21 19.73l-13.68-10.18q3.256-5.714 2.28-10.199c-.679-2.992-2.859-5.98-6.57-9.02-3.84-3.12-7.488-4.78-10.949-4.972-2.219-.14-4 .66-5.39 2.34-1.258 1.543-1.68 3.41-1.27 5.57.52 2.75 3.379 7.5 8.559 14.262 5.203 6.75 8.66 12.18 10.421 16.308 1.758 4.13 2.36 8.32 1.829 12.54-.559 4.21-2.52 8.402-5.887 12.53-3.063 3.75-6.942 6.41-11.711 7.993-4.742 1.578-9.652 1.598-14.75.098-5.11-1.508-10.512-4.59-16.191-9.2-8.258-6.75-13.051-13.82-14.36-21.261-1.332-7.438.57-15.16 5.66-23.18M2586.219 1502.148c4.941-7.007 10.152-12.18 15.601-15.457a39.4 39.4 0 0 1 13.09-4.941c4.692-.879 9.11-.86 13.309.07 5.562 1.192 11.16 3.782 16.77 7.72 10.183 7.179 16.09 16.062 17.761 26.66 1.648 10.62-1.48 21.53-9.398 32.76-7.832 11.13-16.993 17.731-27.473 19.731-10.5 2.028-20.809-.52-30.93-7.652-10.277-7.238-16.219-16.11-17.87-26.629-1.63-10.52 1.401-21.27 9.14-32.262m14.672 9.653c-5.5 7.808-7.852 15-7.102 21.57.781 6.59 3.941 11.82 9.5 15.73 5.55 3.91 11.52 5.118 17.89 3.637 6.38-1.508 12.38-6.25 18.02-14.258 5.57-7.902 7.98-15.011 7.27-21.359-.739-6.312-3.969-11.512-9.707-15.562-5.75-4.04-11.762-5.329-18.051-3.86-6.281 1.461-12.211 6.16-17.82 14.102"/><path fill="#fff" fill-rule="evenodd" d="m2249.281 1152.54 8.188 17.901 19.55 2.25-14.5 13.32 3.91 19.29-17.148-9.68-17.14 9.68 3.898-19.29-14.5-13.32 19.563-2.25z"/><path fill="none" stroke="#fff" stroke-miterlimit="2.613" stroke-width="13.8321" d="m2249.281 1152.54 8.188 17.901 19.55 2.25-14.5 13.32 3.91 19.29-17.148-9.68-17.14 9.68 3.898-19.29-14.5-13.32 19.563-2.25Zm0 0"/><path fill="#fff" fill-rule="evenodd" d="m1442.8 1253.629 8.509 18.633 20.34 2.34-15.079 13.84 4.059 20.058-17.828-10.059-17.832 10.059 4.062-20.059-15.082-13.84 20.352-2.34z"/><path fill="none" stroke="#fff" stroke-miterlimit="2.613" stroke-width="13.8321" d="m1442.8 1253.629 8.509 18.633 20.34 2.34-15.079 13.84 4.059 20.058-17.828-10.059-17.832 10.059 4.062-20.059-15.082-13.84 20.352-2.34Zm0 0"/><path fill="#fff" fill-rule="evenodd" d="m1769.43 1404.602 8.52 18.609 20.331 2.348-15.082 13.84 4.07 20.07-17.84-10.059-17.82 10.059 4.063-20.07-15.082-13.84 20.34-2.348z"/><path fill="none" stroke="#fff" stroke-miterlimit="2.613" stroke-width="13.8321" d="m1769.43 1404.602 8.52 18.609 20.331 2.348-15.082 13.84 4.07 20.07-17.84-10.059-17.82 10.059 4.063-20.07-15.082-13.84 20.34-2.348Zm0 0"/><path fill="#fff" fill-rule="evenodd" d="m2031.352 1473.14 9.18 20.079 21.929 2.511-16.262 14.942 4.371 21.637-19.218-10.86-19.223 10.86 4.383-21.637-16.262-14.942 21.922-2.511z"/><path fill="none" stroke="#fff" stroke-miterlimit="2.613" stroke-width="13.8321" d="m2031.352 1473.14 9.18 20.079 21.929 2.511-16.262 14.942 4.371 21.637-19.218-10.86-19.223 10.86 4.383-21.637-16.262-14.942 21.922-2.511Zm0 0"/><path fill="#fff" fill-rule="evenodd" d="m2218.512 1360.371 5.668 12.41 13.55 1.547-10.05 9.242 2.71 13.371-11.878-6.71-11.883 6.71 2.7-13.37-10.04-9.243 13.55-1.547z"/><path fill="none" stroke="#fff" stroke-miterlimit="2.613" stroke-width="13.8321" d="m2218.512 1360.371 5.668 12.41 13.55 1.547-10.05 9.242 2.71 13.371-11.878-6.71-11.883 6.71 2.7-13.37-10.04-9.243 13.55-1.547Zm0 0"/><path fill="#fff" fill-rule="evenodd" d="m1512.828 1547.648 8.512 18.614 20.34 2.34-15.09 13.84 4.07 20.07-17.832-10.063-17.816 10.063 4.047-20.07-15.079-13.84 20.348-2.34z"/><path fill="none" stroke="#fff" stroke-miterlimit="2.613" stroke-width="13.8321" d="m1512.828 1547.648 8.512 18.614 20.34 2.34-15.09 13.84 4.07 20.07-17.832-10.063-17.816 10.063 4.047-20.07-15.079-13.84 20.348-2.34Zm0 0"/><path fill="#fff" fill-rule="evenodd" d="m1767.71 1765.34 7.661 16.789 18.348 2.101-13.598 12.489 3.66 18.09-16.07-9.079-16.07 9.079 3.648-18.09-13.598-12.489 18.348-2.101z"/><path fill="none" stroke="#fff" stroke-miterlimit="2.613" stroke-width="13.8321" d="m1767.71 1765.34 7.661 16.789 18.348 2.101-13.598 12.489 3.66 18.09-16.07-9.079-16.07 9.079 3.648-18.09-13.598-12.489 18.348-2.101Zm0 0"/><path fill="#fff" fill-rule="evenodd" d="m2042.578 1697.23 7.672 16.79 18.352 2.12-13.602 12.47 3.66 18.09-16.082-9.071-16.066 9.07 3.66-18.09-13.602-12.468 18.34-2.121z"/><path fill="none" stroke="#fff" stroke-miterlimit="2.613" stroke-width="13.8321" d="m2042.578 1697.23 7.672 16.79 18.352 2.12-13.602 12.47 3.66 18.09-16.082-9.071-16.066 9.07 3.66-18.09-13.602-12.468 18.34-2.121Zm0 0"/><path fill="#fff" fill-rule="evenodd" d="m2245.82 1880.188 7.668 16.777 18.332 2.11-13.59 12.487 3.66 18.09-16.07-9.074-16.082 9.074 3.672-18.09-13.601-12.488 18.34-2.11z"/><path fill="none" stroke="#fff" stroke-miterlimit="2.613" stroke-width="13.8321" d="m2245.82 1880.188 7.668 16.777 18.332 2.11-13.59 12.487 3.66 18.09-16.07-9.074-16.082 9.074 3.672-18.09-13.601-12.488 18.34-2.11Zm0 0"/><path fill="#fff" fill-rule="evenodd" d="m1417.91 1624.219 4.98 10.89 11.9 1.371-8.83 8.098 2.38 11.742-10.43-5.879-10.45 5.88 2.38-11.743-8.82-8.098 11.91-1.37z"/><path fill="none" stroke="#fff" stroke-miterlimit="2.613" stroke-width="13.8321" d="m1417.91 1624.219 4.98 10.89 11.9 1.371-8.83 8.098 2.38 11.742-10.43-5.879-10.45 5.88 2.38-11.743-8.82-8.098 11.91-1.37Zm0 0"/><path fill="#fff" fill-rule="evenodd" d="m1585.219 1524.648 3.172 6.91 7.539.872-5.59 5.148 1.5 7.453-6.621-3.742-6.617 3.742 1.507-7.453-5.609-5.148 7.559-.871z"/><path fill="none" stroke="#fff" stroke-miterlimit="2.613" stroke-width="13.8321" d="m1585.219 1524.648 3.172 6.91 7.539.872-5.59 5.148 1.5 7.453-6.621-3.742-6.617 3.742 1.507-7.453-5.609-5.148 7.559-.871Zm0 0"/><path fill="#fff" fill-rule="evenodd" d="m1653.102 1628 4.968 10.89 11.91 1.38-8.832 8.101 2.383 11.73-10.43-5.882-10.44 5.883 2.378-11.73-8.828-8.102 11.91-1.38z"/><path fill="none" stroke="#fff" stroke-miterlimit="2.613" stroke-width="13.8321" d="m1653.102 1628 4.968 10.89 11.91 1.38-8.832 8.101 2.383 11.73-10.43-5.882-10.44 5.883 2.378-11.73-8.828-8.102 11.91-1.38Zm0 0"/><path fill="#fff" fill-rule="evenodd" d="m1622.5 1701.898 4.98 10.903 11.899 1.36-8.82 8.109 2.37 11.742-10.429-5.89-10.43 5.89 2.371-11.742-8.82-8.11 11.899-1.36z"/><path fill="none" stroke="#fff" stroke-miterlimit="2.613" stroke-width="13.8321" d="m1622.5 1701.898 4.98 10.903 11.899 1.36-8.82 8.109 2.37 11.742-10.429-5.89-10.43 5.89 2.371-11.742-8.82-8.11 11.899-1.36Zm0 0"/><path fill="#fff" fill-rule="evenodd" d="m2040.36 1937.055 3.16 6.918 7.55.867-5.601 5.144 1.511 7.454-6.62-3.735-6.622 3.735 1.5-7.454-5.597-5.144 7.558-.867z"/><path fill="none" stroke="#fff" stroke-miterlimit="2.613" stroke-width="13.8321" d="m2040.36 1937.055 3.16 6.918 7.55.867-5.601 5.144 1.511 7.454-6.62-3.735-6.622 3.735 1.5-7.454-5.597-5.144 7.558-.867Zm0 0"/><path fill="#fff" fill-rule="evenodd" d="m2018.68 1631.04 3.16 6.91 7.558.87-5.597 5.14 1.508 7.462-6.63-3.75-6.62 3.75 1.511-7.461-5.601-5.14 7.562-.872z"/><path fill="none" stroke="#fff" stroke-miterlimit="2.613" stroke-width="13.8321" d="m2018.68 1631.04 3.16 6.91 7.558.87-5.597 5.14 1.508 7.462-6.63-3.75-6.62 3.75 1.511-7.461-5.601-5.14 7.562-.872Zm0 0"/><path fill="#fff" fill-rule="evenodd" d="m2190.031 1779.3 3.16 6.91 7.559.868-5.602 5.14 1.5 7.454-6.617-3.742-6.633 3.742 1.512-7.453-5.601-5.14 7.57-.868z"/><path fill="none" stroke="#fff" stroke-miterlimit="2.613" stroke-width="13.8321" d="m2190.031 1779.3 3.16 6.91 7.559.868-5.602 5.14 1.5 7.454-6.617-3.742-6.633 3.742 1.512-7.453-5.601-5.14 7.57-.868Zm0 0"/><path fill="#fff" fill-rule="evenodd" d="m2290.23 1782.191 2.47 5.399 5.902.68-4.383 4.011 1.18 5.82-5.169-2.921-5.171 2.922 1.171-5.82-4.359-4.012 5.89-.68z"/><path fill="none" stroke="#fff" stroke-miterlimit="2.613" stroke-width="13.8321" d="m2290.23 1782.191 2.47 5.399 5.902.68-4.383 4.011 1.18 5.82-5.169-2.921-5.171 2.922 1.171-5.82-4.359-4.012 5.89-.68Zm0 0"/><path fill="#fff" fill-rule="evenodd" d="m2397.73 1774.898 5 10.93 11.942 1.383-8.863 8.129 2.39 11.781-10.469-5.91-10.46 5.91 2.378-11.781-8.859-8.13 11.941-1.382z"/><path fill="none" stroke="#fff" stroke-miterlimit="2.613" stroke-width="13.8321" d="m2397.73 1774.898 5 10.93 11.942 1.383-8.863 8.129 2.39 11.781-10.469-5.91-10.46 5.91 2.378-11.781-8.859-8.13 11.941-1.382Zm0 0"/><path fill="#fff" fill-rule="evenodd" d="m2451.281 1772.988 4.16 9.102 9.93 1.14-7.36 6.758 1.977 9.801-8.707-4.91-8.703 4.91 1.98-9.8-7.367-6.759 9.938-1.14z"/><path fill="none" stroke="#fff" stroke-miterlimit="2.613" stroke-width="13.8321" d="m2451.281 1772.988 4.16 9.102 9.93 1.14-7.36 6.758 1.977 9.801-8.707-4.91-8.703 4.91 1.98-9.8-7.367-6.759 9.938-1.14Zm0 0"/><path fill="#fff" fill-rule="evenodd" d="m2395.781 1855.492 4.16 9.094 9.93 1.14-7.371 6.77 1.988 9.8-8.707-4.913-8.71 4.914 1.98-9.8-7.36-6.77 9.93-1.141z"/><path fill="none" stroke="#fff" stroke-miterlimit="2.613" stroke-width="13.8321" d="m2395.781 1855.492 4.16 9.094 9.93 1.14-7.371 6.77 1.988 9.8-8.707-4.913-8.71 4.914 1.98-9.8-7.36-6.77 9.93-1.141Zm0 0"/><path fill="#fff" fill-rule="evenodd" d="m2398.379 1916.176 4.152 9.097 9.93 1.145-7.352 6.762 1.98 9.8-8.71-4.914-8.7 4.914 1.981-9.8-7.37-6.762 9.929-1.145z"/><path fill="none" stroke="#fff" stroke-miterlimit="2.613" stroke-width="13.8321" d="m2398.379 1916.176 4.152 9.097 9.93 1.145-7.352 6.762 1.98 9.8-8.71-4.914-8.7 4.914 1.981-9.8-7.37-6.762 9.929-1.145Zm0 0"/><path fill="#fff" fill-rule="evenodd" d="m2518.8 1752.969 6.13 13.43 14.68 1.69-10.891 9.99 2.941 14.472-12.86-7.262-12.859 7.262 2.93-14.473-10.883-9.988 14.672-1.692z"/><path fill="none" stroke="#fff" stroke-miterlimit="2.613" stroke-width="13.8321" d="m2518.8 1752.969 6.13 13.43 14.68 1.69-10.891 9.99 2.941 14.472-12.86-7.262-12.859 7.262 2.93-14.473-10.883-9.988 14.672-1.692Zm0 0"/><path fill="#fff" fill-rule="evenodd" d="m2621.3 1635.809 4.16 9.09 9.93 1.152-7.359 6.758 1.98 9.8-8.71-4.91-8.7 4.91 1.977-9.8-7.367-6.758 9.93-1.153z"/><path fill="none" stroke="#fff" stroke-miterlimit="2.613" stroke-width="13.8321" d="m2621.3 1635.809 4.16 9.09 9.93 1.152-7.359 6.758 1.98 9.8-8.71-4.91-8.7 4.91 1.977-9.8-7.367-6.758 9.93-1.153Zm0 0"/><path fill="#fff" fill-rule="evenodd" d="m2528.398 1624.14 7.91 17.301 18.903 2.18-14.012 12.86 3.762 18.648-16.563-9.348-16.57 9.348 3.781-18.649-14.007-12.859 18.886-2.18z"/><path fill="none" stroke="#fff" stroke-miterlimit="2.613" stroke-width="13.8321" d="m2528.398 1624.14 7.91 17.301 18.903 2.18-14.012 12.86 3.762 18.648-16.563-9.348-16.57 9.348 3.781-18.649-14.007-12.859 18.886-2.18Zm0 0"/><path fill="#fff" fill-rule="evenodd" d="m1966.031 1564.55 4.98 10.891 11.9 1.368-8.821 8.101 2.379 11.738-10.438-5.886-10.43 5.886 2.38-11.738-8.833-8.101 11.903-1.368z"/><path fill="none" stroke="#fff" stroke-miterlimit="2.613" stroke-width="13.8321" d="m1966.031 1564.55 4.98 10.891 11.9 1.368-8.821 8.101 2.379 11.738-10.438-5.886-10.43 5.886 2.38-11.738-8.833-8.101 11.903-1.368Zm0 0"/><path fill="#fff" fill-rule="evenodd" d="m2107.441 1561.371 4.98 10.899 11.907 1.37-8.828 8.098 2.371 11.742-10.43-5.89-10.43 5.89 2.38-11.742-8.832-8.097 11.902-1.371z"/><path fill="none" stroke="#fff" stroke-miterlimit="2.613" stroke-width="13.8321" d="m2107.441 1561.371 4.98 10.899 11.907 1.37-8.828 8.098 2.371 11.742-10.43-5.89-10.43 5.89 2.38-11.742-8.832-8.097 11.902-1.371Zm0 0"/><path fill="#fff" fill-rule="evenodd" d="m2535.27 1701.281 4.16 9.098 9.93 1.14-7.372 6.77 2 9.8-8.718-4.917-8.7 4.918 1.98-9.8-7.37-6.77 9.941-1.141z"/><path fill="none" stroke="#fff" stroke-miterlimit="2.613" stroke-width="13.8321" d="m2535.27 1701.281 4.16 9.098 9.93 1.14-7.372 6.77 2 9.8-8.718-4.917-8.7 4.918 1.98-9.8-7.37-6.77 9.941-1.141Zm0 0"/><path fill="#33a03d" d="M2140.61 1248.809c2.628-8.18 6.1-14.637 10.34-19.387a39.8 39.8 0 0 1 11.03-8.57c4.211-2.23 8.45-3.512 12.711-3.872 5.688-.48 11.79.34 18.329 2.461 11.82 3.829 20.07 10.559 24.789 20.188 4.722 9.652 4.953 20.992.722 34.043-4.203 12.95-11.011 21.937-20.43 26.969-9.41 5.03-20.023 5.629-31.8 1.82-11.91-3.883-20.223-10.602-24.89-20.16-4.68-9.57-4.95-20.742-.802-33.492m16.859 4.882q-4.426 13.603-.418 22.688c2.687 6.031 7.258 10.121 13.699 12.21 6.469 2.09 12.5 1.481 18.148-1.827 5.653-3.293 9.993-9.602 13.012-18.91 2.988-9.18 3.18-16.692.64-22.532-2.562-5.82-7.19-9.832-13.859-11.992-6.671-2.168-12.8-1.637-18.382 1.621q-8.34 4.877-12.84 18.742M1413.719 1131.371c-.457-8.562.43-15.851 2.71-21.793 1.68-4.406 4.083-8.379 7.22-11.976 3.12-3.582 6.62-6.293 10.492-8.16 5.129-2.5 11.12-3.922 17.968-4.301 12.403-.66 22.54 2.68 30.41 9.96 7.852 7.297 12.141 17.797 12.88 31.528.722 13.59-2.419 24.422-9.387 32.5-6.992 8.07-16.66 12.441-29.032 13.101-12.53.68-22.699-2.62-30.48-9.87-7.809-7.258-12.07-17.57-12.781-30.989m17.5-1.512c.5 9.551 3.09 16.66 7.77 21.36 4.652 4.66 10.382 6.84 17.152 6.48q10.172-.555 16.308-8.219c4.082-5.109 5.86-12.539 5.34-22.308-.508-9.672-3-16.774-7.5-21.274-4.48-4.52-10.219-6.59-17.238-6.218-6.992.36-12.54 3.082-16.563 8.11-4.02 5.03-5.789 12.39-5.27 22.07"/></svg>