<svg xmlns="http://www.w3.org/2000/svg" xml:space="preserve" id="Camada_1" x="0" y="0" version="1.1" viewBox="0 0 3000 1579.1"><style>.st0{fill:#fff}</style><path d="M0 .2h3000v1578.9H0z" class="st0"/><path fill="#bf0a30" d="M0 .2h3000v121.5H0zm0 242.9h3000v121.5H0zm0 243h3000v121.5H0zM0 729h3000v121.5H0zm0 242.9h3000v121.5H0zm0 242.9h3000v121.5H0zm0 242.9h3000v121.5H0z"/><path fill="#002868" d="M0 0h1200v850.2H0z"/><path d="m113.5 79-10.9-33.6L91.8 79H56.4l28.7 20.8-11 33.6 28.6-20.9 28.7 20.9-11-33.6L148.9 79zm199 0-10.9-33.6L290.7 79h-35.3L284 99.7l-11 33.6 28.6-20.9 28.6 20.9-10.9-33.6L347.8 79zm199 0-10.9-33.6L489.7 79h-35.4L483 99.8l-11 33.5 28.6-20.9 28.6 20.9-10.9-33.6L546.8 79zm198.9 0-10.9-33.6L688.6 79h-35.4l28.7 20.8-11 33.6 28.6-20.9 28.7 20.9-11-33.6L745.8 79zm205.7 20.7L944.8 79h-35.4l-10.9-33.6-11 33.6h-35.3l28.6 20.8-10.9 33.6 28.6-20.9 28.6 20.9zm199 0 28.6-20.8h-35.3l-10.9-33.6-11 33.7h-35.4l28.7 20.8-10.9 33.6 28.6-20.9 28.6 20.9zm-913 30.9-10.9 33.6h-35.3l28.6 20.8-10.9 33.6 28.6-20.8 28.6 20.8-10.9-33.6 28.7-20.8H213zM412 164.2l-10.9-33.6-10.9 33.6h-35.3l28.6 20.8-10.9 33.6 28.6-20.8 28.6 20.8-10.9-33.6 28.6-20.8zm198.9 0-10.8-33.6-10.9 33.6h-35.4l28.7 20.8-11 33.6 28.7-20.8 28.6 20.8-10.9-33.6 28.6-20.8zm199 0L799 130.6l-10.8 33.6h-35.4l28.6 20.8-10.9 33.6 28.6-20.8 28.6 20.8-10.9-33.6 28.7-20.8zm198.9 0-10.9-33.6-10.9 33.6h-35.3l28.6 20.8-10.9 33.6 28.6-20.8 28.6 20.8-10.9-33.6 28.6-20.8zm-895.3 85.3-10.9-33.7-10.8 33.7-35.4-.1 28.7 20.8-11 33.7 28.6-20.9 28.7 20.9-11-33.7 28.7-20.8zm199 0-10.9-33.7-10.9 33.7-35.3-.1 28.6 20.8-11 33.7 28.6-20.9 28.6 20.9-10.9-33.7 28.6-20.8zm199 0-10.9-33.7-10.9 33.7-35.4-.1 28.7 20.8-11 33.7 28.6-20.9 28.6 20.9-10.9-33.7 28.6-20.8zm198.9 0-10.9-33.7-10.8 33.7-35.4-.1 28.7 20.8-11 33.7 28.6-20.9 28.7 20.9-11-33.7 28.7-20.8zm198.9 0-10.9-33.7-10.9 33.7-35.3-.1 28.6 20.8-10.9 33.7 28.6-20.9 28.6 20.9-10.9-33.7 28.7-20.8zm205.8 20.7 28.6-20.8-35.3.1-10.9-33.7-10.9 33.7-35.4-.1 28.7 20.8-10.9 33.7 28.6-20.9 28.6 20.9zm-913 26.6-10.9 33.6h-35.3l28.6 20.8-10.9 33.6 28.6-20.8 28.6 20.8-10.9-33.6 28.7-20.8H213zM412 330.4l-10.9-33.6-10.9 33.6h-35.3l28.6 20.8-10.9 33.6 28.6-20.8 28.6 20.8-10.9-33.6 28.6-20.8zm198.9 0-10.8-33.6-10.9 33.6h-35.4l28.7 20.8-11 33.6 28.7-20.8 28.6 20.8-10.9-33.6 28.6-20.8zm199 0L799 296.8l-10.8 33.6h-35.4l28.6 20.8-10.9 33.6 28.6-20.8 28.6 20.8-10.9-33.6 28.7-20.8zm198.9 0-10.9-33.6-10.9 33.6h-35.3l28.6 20.8-10.9 33.6L998 364l28.6 20.8-10.9-33.6 28.6-20.8zm-895.3 85.3L102.6 382l-10.8 33.7-35.4-.1 28.7 20.8L74 470l28.6-20.8 28.7 20.8-11-33.6 28.7-20.8zm199 0L301.6 382l-10.9 33.7-35.3-.1 28.6 20.8-11 33.6 28.6-20.8 28.6 20.8-10.9-33.6 28.6-20.8zm199 0L500.6 382l-10.9 33.7-35.4-.1 28.7 20.8-11 33.6 28.6-20.8 28.6 20.8-10.9-33.6 28.6-20.8zm198.9 0-11-33.7-10.8 33.7-35.4-.1 28.7 20.8-11 33.6 28.6-20.8 28.7 20.8-11-33.6 28.7-20.8zm198.9 0L898.4 382l-10.9 33.7-35.3-.1 28.6 20.8-10.9 33.6 28.6-20.8L927 470l-10.9-33.6 28.7-20.8zm205.8 20.7 28.6-20.8-35.3.1-10.9-33.7-10.9 33.7-35.4-.1 28.7 20.8L1069 470l28.6-20.8L1126 470zm-913 29L191.2 499h-35.3l28.6 20.8-10.9 33.6 28.6-20.8 28.6 20.8-10.9-33.6 28.7-20.8H213zM412 499l-10.9-33.6-10.9 33.6h-35.3l28.6 20.8-10.9 33.6 28.6-20.8 28.6 20.8-10.9-33.6 28.6-20.8zm198.9 0-10.8-33.6-10.9 33.6h-35.4l28.7 20.8-11 33.6 28.7-20.8 28.6 20.8-10.9-33.6 28.6-20.8zm199 0L799 465.4 788.1 499h-35.4l28.6 20.8-10.9 33.6 28.6-20.8 28.6 20.8-10.9-33.6 28.7-20.8zm198.9 0-10.9-33.6L987 499h-35.3l28.6 20.8-10.9 33.6 28.6-20.8 28.6 20.8-10.9-33.6 28.6-20.8zm-895.3 85.4-10.9-33.7-10.8 33.7-35.4-.1L85.1 605l-11 33.7 28.6-20.9 28.7 20.9-11-33.7 28.7-20.8zm199 0-10.9-33.7-10.9 33.7-35.3-.1L284 605l-11 33.7 28.6-20.9 28.6 20.9-11-33.7 28.6-20.8zm199 0-10.9-33.7-10.9 33.7-35.4-.1 28.7 20.8-11 33.6 28.6-20.9 28.6 20.9-11-33.7 28.6-20.8zm198.9 0-10.9-33.7-10.8 33.7-35.4-.1 28.7 20.8-11 33.7 28.6-20.9 28.7 20.9-11-33.7 28.7-20.8zm198.9 0-10.9-33.7-10.9 33.7-35.3-.1 28.6 20.8-10.9 33.7 28.6-20.9 28.6 20.9-11-33.8 28.7-20.8zm205.8 20.6 28.6-20.8-35.3.1-10.9-33.7-10.9 33.7-35.4-.1 28.7 20.8-10.9 33.7 28.6-20.9 28.6 20.9zm-913 26.6-10.9 33.6h-35.3l28.6 20.8-10.9 33.6 28.6-20.8 28.6 20.8-11.1-33.6 28.7-20.8H213zM412 665.2l-10.9-33.6-10.9 33.6h-35.3l28.6 20.8-10.9 33.6 28.6-20.8 28.6 20.8-11.1-33.6 28.6-20.8zm198.9 0-10.8-33.6-10.9 33.6h-35.4l28.7 20.8-11 33.6 28.7-20.8 28.6 20.8-11.1-33.6 28.6-20.8zm199 0L799 631.6l-10.8 33.6h-35.4l28.6 20.8-10.9 33.6 28.6-20.8 28.6 20.8-11.1-33.6 28.7-20.8zm198.9 0-10.9-33.6-10.9 33.6h-35.3l28.6 20.8-10.9 33.6 28.6-20.8 28.6 20.8-10.9-33.6 28.6-20.8zm-895.3 85.4-10.9-33.7-10.8 33.7-35.4-.1 28.7 20.8-11 33.6 28.6-20.8 28.7 20.8-11-33.6 28.7-20.8zm199 0-10.9-33.7-10.9 33.7-35.3-.1 28.6 20.8-11 33.5 28.6-20.8 28.6 20.8-10.9-33.6 28.6-20.8zm199 0-10.9-33.7-10.9 33.7-35.4-.1 28.7 20.8-11 33.5 28.6-20.8 28.6 20.8-10.9-33.6 28.6-20.8zm198.9 0-10.9-33.7-10.8 33.7-35.4-.1 28.7 20.8-11 33.6 28.6-20.8 28.7 20.8-11-33.6 28.7-20.8zm198.9 0-10.9-33.7-10.9 33.7-35.3-.1 28.6 20.8-10.9 33.6 28.6-20.8 28.6 20.8-10.9-33.6 28.7-20.8zm205.8 20.6 28.6-20.8-35.3.1-10.9-33.7-10.9 33.7-35.4-.1 28.7 20.8-10.9 33.6 28.6-20.8 28.6 20.8z" class="st0"/></svg>